<svg xmlns="http://www.w3.org/2000/svg" viewBox="0 0 64 64" fill="currentColor">
  <!-- Lamp body -->
  <ellipse cx="30" cy="36" rx="20" ry="12" opacity="0.9"/>
  <!-- Lamp spout -->
  <path d="M48 30 Q58 28 56 36 Q54 40 48 38 Z" opacity="0.85"/>
  <!-- Lamp handle -->
  <path d="M12 30 Q4 30 4 38 Q4 46 12 44" fill="none" stroke="currentColor" stroke-width="3" stroke-linecap="round"/>
  <!-- Lamp lid -->
  <ellipse cx="30" cy="24" rx="14" ry="5" opacity="0.95"/>
  <!-- Lid knob -->
  <circle cx="30" cy="20" r="3"/>
  <!-- Magic smoke/steam -->
  <path d="M30 18 Q34 12 30 8 Q26 4 30 0" fill="none" stroke="currentColor" stroke-width="2.5" stroke-linecap="round" opacity="0.6"/>
  <path d="M36 16 Q40 10 36 6" fill="none" stroke="currentColor" stroke-width="2" stroke-linecap="round" opacity="0.4"/>
  <!-- Stars/sparkles -->
  <polygon points="52,10 53.5,13.5 57,13.5 54.2,15.8 55.3,19.5 52,17.3 48.7,19.5 49.8,15.8 47,13.5 50.5,13.5" opacity="0.8"/>
  <polygon points="42,2 42.9,4.5 45.5,4.5 43.5,6 44.3,8.5 42,7 39.7,8.5 40.5,6 38.5,4.5 41.1,4.5" transform="scale(0.7) translate(18,2)" opacity="0.6"/>
</svg>